<svg xmlns="http://www.w3.org/2000/svg" viewBox="0 0 461 100.33"><defs><style>.cls-1{fill:#55367c;}.cls-2{fill:#009fb0;fill-rule:evenodd;opacity:0.9;}</style></defs><title>voyage-logo</title><g id="Layer_2" data-name="Layer 2"><g id="Layer_1-2" data-name="Layer 1"><path class="cls-1" d="M368.77,16.5c3.58-1.32,16.14-.54,21.93,9.24C397.29,36.87,401.63,49.68,417,46.3c0,0-3.39,1.61-11.69,1.61s-16.66-3.32-21-12.12C373.86,14.42,368.77,16.5,368.77,16.5Z"/><path class="cls-2" d="M461,1.36c-4.52-1.76-26.11-5.5-39,17.53C409.86,40.52,403,50,392.33,44.58c0,0,4.82,3.33,13,3.33,7.54,0,19.37,0,30.22-19.85C451.83-1.66,461,1.36,461,1.36Z"/><path class="cls-1" d="M0,47.41H9.85l7.79,23.23c.73,2.21,1.25,5.66,1.32,5.66h.15c.07,0,.59-3.45,1.32-5.66l7.79-23.23h9.85L24.62,84.89h-11Z"/><path class="cls-1" d="M59.61,46.53c11.47,0,20.65,8.16,20.65,19.62S71.07,85.78,59.68,85.78,39,77.69,39,66.15,48.21,46.53,59.61,46.53Zm.07,31.31c6,0,11.1-4.7,11.1-11.69s-5.07-11.69-11.1-11.69S48.51,59.24,48.51,66.15,53.58,77.84,59.68,77.84Z"/><path class="cls-1" d="M83.56,90.92a8.17,8.17,0,0,0,4.19,1.54c2.57,0,5.07-1.54,6.47-4.85l1.4-3.31-15.8-36.9H90.33L98.19,69a46.18,46.18,0,0,1,1.4,5.07h.15s.59-2.94,1.25-4.92l7.35-21.76h10.22L101.79,90.55c-2.65,6.84-7.86,9.78-13.52,9.78a14.41,14.41,0,0,1-7.79-2.43Z"/><path class="cls-1" d="M140.25,61.37h1.25v-.51c0-4.92-3.09-6.61-7.2-6.61-5.37,0-10.29,3.6-10.29,3.6l-3.53-6.69a25.28,25.28,0,0,1,14.7-4.63c9.85,0,15.58,5.44,15.58,14.92V84.89h-8.6V81.81a23.78,23.78,0,0,1,.15-2.65h-.15c.07,0-2.87,6.61-11.39,6.61-6.69,0-12.72-4.19-12.72-11.69C118.06,62.18,134.15,61.37,140.25,61.37ZM133.12,78.5c4.92,0,8.45-5.29,8.45-9.85v-.88H140c-4.78,0-12.49.66-12.49,5.88C127.46,76.15,129.3,78.5,133.12,78.5Z"/><path class="cls-1" d="M173.84,92.39c5.73,0,10.58-2.43,10.58-9.11v-2.2a18,18,0,0,1,.15-2h-.15c-2.2,3.31-5.44,5.07-10.44,5.07-10.73,0-16.83-8.67-16.83-19S163,46.53,173.77,46.53c8.16,0,11.1,4.78,11.1,4.78h.22a6.93,6.93,0,0,1-.07-1V47.41h8.75V82.62c0,12.86-10,17.71-19.77,17.71a29.87,29.87,0,0,1-13.3-3.23L163.48,90A25.19,25.19,0,0,0,173.84,92.39Zm10.8-27.12c0-8.53-4.19-10.8-9.26-10.8-5.66,0-8.82,4.12-8.82,10.44,0,6.54,3.38,11.39,9.41,11.39C180.46,76.29,184.65,73.72,184.65,65.27Z"/><path class="cls-1" d="M219.21,46.53c10.8,0,16.61,7.86,16.61,17.79,0,1.1-.22,3.6-.22,3.6H209.73c.59,6.54,5.66,9.92,11.25,9.92,6,0,10.8-4.12,10.8-4.12l3.6,6.69a23.42,23.42,0,0,1-15.07,5.37c-12.42,0-20.14-9-20.14-19.62C200.18,54.61,208,46.53,219.21,46.53Zm7.2,15c-.15-5.07-3.31-7.79-7.42-7.79-4.78,0-8.08,2.94-9,7.79Z"/><path class="cls-1" d="M260.94,47.26c8.75,0,13.16,5.22,13.16,5.22L272.19,55a16,16,0,0,0-11.25-4.7c-8.6,0-15.73,6.39-15.73,16.32s7.13,16.17,15.73,16.17a16.22,16.22,0,0,0,12.27-5.29L274.83,80a18.74,18.74,0,0,1-13.89,5.73c-10.36,0-19-7.5-19-19.18S250.73,47.26,260.94,47.26Z"/><path class="cls-1" d="M302,62.48h2.43V61.23c0-8.16-4.19-11-10.07-11a17.28,17.28,0,0,0-10.51,3.53l-1.76-2.5s4.41-4,12.42-4c8.45,0,13,4.7,13,13.89V84.89h-3.09V80a16.8,16.8,0,0,1,.29-3.31h-.15c.07,0-3.31,9-12.86,9-6,0-12.5-3.31-12.5-10.66C279.2,62.62,295.45,62.48,302,62.48ZM291.85,82.91c8,0,12.57-8.31,12.57-15.58v-2h-2.35c-6.25,0-19.62,0-19.62,9.56C282.44,78.79,285.6,82.91,291.85,82.91Z"/><path class="cls-1" d="M316.67,48.14h3.09v7a15.43,15.43,0,0,1-.29,3h.15c1.84-5.66,6-10.29,11.76-10.29a11.53,11.53,0,0,1,2.13.22v3.09a12,12,0,0,0-1.69-.15c-5.73,0-9.33,4.85-11,10.29a26.11,26.11,0,0,0-1.1,7.72V84.89h-3.09Z"/><path class="cls-1" d="M354.24,47.26c10,0,15,7.86,15,16.76,0,.81-.15,2-.15,2H339.62c0,10.66,7.2,16.76,15.73,16.76a16.64,16.64,0,0,0,11.39-4.63l1.69,2.57a20,20,0,0,1-13.08,5.07c-10.36,0-19-7.5-19-19.18C336.38,54.17,344.83,47.26,354.24,47.26ZM366,63.14c-.37-9-5.73-13-11.83-13-6.76,0-13,4.41-14.33,13Z"/></g></g></svg>